<?xml version="1.0" encoding="iso-8859-1"?>
<!-- Generator: Adobe Illustrator 19.0.0, SVG Export Plug-In . SVG Version: 6.00 Build 0)  -->
<svg version="1.1" id="Layer_1" xmlns="http://www.w3.org/2000/svg" xmlns:xlink="http://www.w3.org/1999/xlink" x="0px" y="0px"
	 viewBox="0 0 490.322 490.322" style="enable-background:new 0 0 490.322 490.322;" xml:space="preserve">
<g id="XMLID_3_">
	<g id="XMLID_1249_">
		<polygon style="fill:#F7931E;" points="292.547,482.661 39.725,482.661 39.725,8.022 292.476,7.661 		"/>
	</g>
	<g id="XMLID_778_">
		<polygon style="fill:#FBB03B;" points="116.338,482.661 39.725,482.661 39.725,7.661 246.58,7.661 		"/>
	</g>
	<g id="XMLID_1150_">
		<rect x="39.725" y="7.661" style="fill:#FFFFFF;" width="15.322" height="475"/>
	</g>
	<g id="XMLID_771_">
		<g>
			<polygon style="fill:#1D1D1B;" points="47.386,467.339 32.064,467.339 32.064,490.322 55.595,490.322 55.595,475 47.386,475 			
				"/>
			<rect x="174.639" y="475" style="fill:#1D1D1B;" width="34.013" height="15.322"/>
			<rect x="123.62" y="475" style="fill:#1D1D1B;" width="34.013" height="15.322"/>
			<rect x="72.601" y="475" style="fill:#1D1D1B;" width="34.013" height="15.322"/>
			<rect x="225.659" y="475" style="fill:#1D1D1B;" width="34.013" height="15.322"/>
			<polygon style="fill:#1D1D1B;" points="284.887,475 276.678,475 276.678,490.322 292.548,490.322 300.209,490.322 
				300.209,467.339 284.887,467.339 			"/>
			<rect x="32.064" y="419.729" style="fill:#1D1D1B;" width="15.322" height="31.739"/>
			<rect x="32.064" y="38.853" style="fill:#1D1D1B;" width="15.322" height="31.739"/>
			<rect x="32.064" y="372.12" style="fill:#1D1D1B;" width="15.322" height="31.739"/>
			<rect x="32.064" y="86.463" style="fill:#1D1D1B;" width="15.322" height="31.74"/>
			<rect x="32.064" y="181.682" style="fill:#1D1D1B;" width="15.322" height="31.74"/>
			<rect x="32.064" y="276.9" style="fill:#1D1D1B;" width="15.322" height="31.74"/>
			<rect x="32.064" y="229.291" style="fill:#1D1D1B;" width="15.322" height="31.74"/>
			<rect x="32.064" y="324.51" style="fill:#1D1D1B;" width="15.322" height="31.74"/>
			<rect x="32.064" y="134.072" style="fill:#1D1D1B;" width="15.322" height="31.74"/>
			<polygon style="fill:#1D1D1B;" points="47.386,15.322 55.048,15.322 55.048,0 32.064,0 32.064,22.983 47.386,22.983 			"/>
			<rect x="235.567" style="fill:#1D1D1B;" width="27.772" height="15.322"/>
			<rect x="68.933" style="fill:#1D1D1B;" width="27.772" height="15.322"/>
			<rect x="152.25" style="fill:#1D1D1B;" width="27.772" height="15.322"/>
			<rect x="110.592" style="fill:#1D1D1B;" width="27.772" height="15.322"/>
			<rect x="193.908" style="fill:#1D1D1B;" width="27.772" height="15.322"/>
			<polygon style="fill:#1D1D1B;" points="284.887,22.983 300.209,22.983 300.209,0 277.225,0 277.225,15.322 284.887,15.322 			"/>
			<rect x="284.887" y="86.463" style="fill:#1D1D1B;" width="15.322" height="31.739"/>
			<rect x="284.887" y="276.9" style="fill:#1D1D1B;" width="15.322" height="31.74"/>
			<rect x="284.887" y="134.072" style="fill:#1D1D1B;" width="15.322" height="31.74"/>
			<rect x="284.887" y="419.729" style="fill:#1D1D1B;" width="15.322" height="31.739"/>
			<rect x="284.887" y="38.853" style="fill:#1D1D1B;" width="15.322" height="31.739"/>
			<rect x="284.887" y="372.119" style="fill:#1D1D1B;" width="15.322" height="31.74"/>
			<rect x="284.887" y="229.291" style="fill:#1D1D1B;" width="15.322" height="31.74"/>
			<rect x="284.887" y="324.51" style="fill:#1D1D1B;" width="15.322" height="31.74"/>
			<path style="fill:#1D1D1B;" d="M455.713,321.874c-3.267-7.506-9.261-13.289-16.878-16.287c-7.619-2.997-15.946-2.85-23.451,0.419
				c-3.675,1.599-6.934,3.856-9.659,6.634l-46.553-52.744l-9.529-123.077l-15.277,1.184l7.959,102.806l-42.117-47.648v-11.478
				h-15.322v31.74h12.832l46.573,52.767l5.49,70.911c-3.909,0.066-7.867,0.882-11.669,2.537
				c-15.494,6.744-22.613,24.836-15.87,40.329c5.017,11.524,16.309,18.415,28.143,18.415c4.075,0,8.217-0.818,12.186-2.546
				c15.494-6.744,22.613-24.836,15.87-40.329c-2.753-6.323-7.396-11.25-12.981-14.411l-4.322-55.818l36.701,41.583
				c-1.59,6.475-1.031,13.257,1.675,19.475c5.017,11.524,16.309,18.415,28.143,18.415c4.075,0,8.217-0.818,12.186-2.546
				C455.337,355.459,462.456,337.368,455.713,321.874z M364.391,361.621c3.372,7.746-0.188,16.793-7.935,20.165
				c-7.745,3.369-16.792-0.189-20.164-7.936c-3.372-7.746,0.188-16.793,7.935-20.165c1.985-0.863,4.054-1.272,6.093-1.272
				C356.236,352.413,361.883,355.859,364.391,361.621z M433.729,348.154c-7.749,3.369-16.793-0.189-20.165-7.936
				c-1.633-3.752-1.708-7.917-0.209-11.725c1.499-3.809,4.391-6.806,8.144-8.439c1.961-0.854,4.035-1.281,6.111-1.281
				c1.897,0,3.796,0.357,5.614,1.072c3.809,1.499,6.806,4.391,8.439,8.143C445.035,335.735,441.475,344.782,433.729,348.154z"/>
		</g>
	</g>
	<g id="XMLID_806_">
		<g id="XMLID_807_">
			<path style="fill:#1D1D1B;" d="M159.717,201.655c3.95,4.272,5.929,9.446,5.929,15.513c0,6.068-2.001,11.264-6,15.581
				c-3.999,4.324-8.963,6.483-14.892,6.483s-10.871-2.136-14.825-6.412c-3.954-4.276-5.929-9.446-5.929-15.513
				c0-6.068,2.001-11.264,6-15.584c3.999-4.321,8.963-6.483,14.892-6.483C150.821,195.239,155.763,197.379,159.717,201.655z
				 M215.841,197.585l-70.605,96.395h-17.788l70.605-96.395L215.841,197.585L215.841,197.585z M150.477,224.407
				c1.47-1.882,2.207-4.205,2.207-6.965c0-2.757-0.782-5.076-2.346-6.962c-1.564-1.885-3.472-2.828-5.724-2.828
				s-4.115,0.943-5.585,2.828c-1.47,1.885-2.207,4.205-2.207,6.962c0,2.761,0.782,5.084,2.345,6.965
				c1.564,1.885,3.468,2.828,5.724,2.828C147.144,227.235,149.003,226.292,150.477,224.407z M214.464,257.502
				c3.95,4.276,5.929,9.449,5.929,15.517s-2.001,11.26-6,15.581c-3.999,4.324-8.963,6.483-14.892,6.483s-10.871-2.136-14.825-6.412
				s-5.929-9.446-5.929-15.513c0-6.068,2.001-11.264,6-15.585c3.999-4.321,8.963-6.483,14.892-6.483
				C205.569,251.09,210.51,253.23,214.464,257.502z M205.501,280.535c1.466-1.885,2.203-4.208,2.203-6.965s-0.782-5.08-2.342-6.966
				c-1.564-1.882-3.472-2.824-5.724-2.824c-2.256,0-4.115,0.943-5.585,2.824c-1.47,1.885-2.207,4.208-2.207,6.966
				c0,2.757,0.782,5.08,2.345,6.965c1.56,1.885,3.468,2.824,5.724,2.824C202.168,283.359,204.027,282.42,205.501,280.535z"/>
		</g>
	</g>
</g>
<g>
</g>
<g>
</g>
<g>
</g>
<g>
</g>
<g>
</g>
<g>
</g>
<g>
</g>
<g>
</g>
<g>
</g>
<g>
</g>
<g>
</g>
<g>
</g>
<g>
</g>
<g>
</g>
<g>
</g>
</svg>
