<?xml version="1.0" encoding="iso-8859-1"?>
<!-- Generator: Adobe Illustrator 19.0.0, SVG Export Plug-In . SVG Version: 6.00 Build 0)  -->
<svg version="1.1" id="Layer_1" xmlns="http://www.w3.org/2000/svg" xmlns:xlink="http://www.w3.org/1999/xlink" x="0px" y="0px"
	 viewBox="0 0 512 512" style="enable-background:new 0 0 512 512;" xml:space="preserve">
<g>
	<rect x="384.715" y="91.549" style="fill:#FBB03B;" width="24.001" height="16.696"/>
	<rect x="136.357" y="91.549" style="fill:#FBB03B;" width="15.653" height="16.696"/>
</g>
<rect x="191.998" y="84.108" style="fill:#F1506E;" width="167.997" height="32"/>
<g>
	<rect x="271.994" y="164.105" style="fill:#BF9484;" width="231.996" height="288.002"/>
	<rect x="8" y="164.105" style="fill:#BF9484;" width="231.996" height="288.002"/>
</g>
<path d="M247.999,460.106H0v-304h247.999V460.106z M15.999,444.106H232V172.107H15.999V444.106z"/>
<path d="M512,460.106H264v-304h247.999v304H512z M279.999,444.106H496V172.107H279.999V444.106z"/>
<g>
	<rect x="215.665" y="187.553" style="fill:#514A51;" width="80.351" height="16.696"/>
	<rect x="215.665" y="219.902" style="fill:#514A51;" width="80.351" height="16.696"/>
	<rect x="215.665" y="251.208" style="fill:#514A51;" width="80.351" height="16.696"/>
	<rect x="215.665" y="284.6" style="fill:#514A51;" width="80.351" height="16.696"/>
	<rect x="215.665" y="315.906" style="fill:#514A51;" width="80.351" height="16.696"/>
	<rect x="215.665" y="347.212" style="fill:#514A51;" width="80.351" height="16.696"/>
	<rect x="215.665" y="379.561" style="fill:#514A51;" width="80.351" height="16.696"/>
	<rect x="215.665" y="411.91" style="fill:#514A51;" width="80.351" height="16.696"/>
</g>
<rect x="320.017" y="187.553" style="fill:#FBB03B;" width="16.696" height="16.696"/>
<path style="fill:#FFFFFF;" d="M480.715,380.603H399.32v-48.002h-7.305v16.696h-40.697v-64.698h24.001v-24.001h105.396V380.603z
	 M416.017,363.907h48.002v-86.612h-72.003v24.001h-24.001v31.306h7.305v-16.696h40.697V363.907z"/>
<g>
	<rect x="351.323" y="355.56" style="fill:#FBB03B;" width="40.697" height="16.696"/>
	<rect x="399.325" y="387.909" style="fill:#FBB03B;" width="80.351" height="16.696"/>
</g>
<rect x="368.019" y="379.561" width="16.696" height="16.696"/>
<rect x="448.37" y="411.91" width="15.653" height="16.696"/>
<g>
	<rect x="375.324" y="235.555" style="fill:#FBB03B;" width="104.352" height="16.696"/>
	<rect x="327.322" y="284.6" style="fill:#FBB03B;" width="16.696" height="63.655"/>
</g>
<rect x="303.321" y="324.254" width="16.696" height="15.653"/>
<rect x="448.37" y="211.554" width="15.653" height="16.696"/>
<rect x="320.017" y="211.554" style="fill:#F1506E;" width="40.697" height="16.696"/>
<g>
	<rect x="48.697" y="195.901" style="fill:#FBB03B;" width="46.958" height="16.696"/>
	<rect x="48.697" y="251.208" style="fill:#FBB03B;" width="14.609" height="16.696"/>
</g>
<rect x="80.007" y="251.208" style="fill:#F1506E;" width="104.352" height="16.696"/>
<rect x="80.007" y="275.209" style="fill:#FFFFFF;" width="104.352" height="16.696"/>
<rect x="48.697" y="315.906" style="fill:#FBB03B;" width="14.609" height="16.696"/>
<rect x="80.007" y="315.906" style="fill:#F1506E;" width="104.352" height="16.696"/>
<rect x="80.007" y="339.907" style="fill:#FFFFFF;" width="104.352" height="16.696"/>
<rect x="48.697" y="379.561" style="fill:#FBB03B;" width="14.609" height="16.696"/>
<rect x="80.007" y="379.561" style="fill:#F1506E;" width="104.352" height="16.696"/>
<rect x="80.007" y="403.562" style="fill:#FFFFFF;" width="104.352" height="16.696"/>
<rect x="48.697" y="219.902" width="87.656" height="16.696"/>
<rect x="222.969" y="76.939" width="16.696" height="48.002"/>
<polygon points="184.355,91.548 160.354,91.548 160.354,108.244 184.355,108.244 184.355,124.94 215.661,124.94 215.661,108.244 
	201.051,108.244 201.051,91.548 215.661,91.548 215.661,74.851 184.355,74.851 "/>
<polygon points="296.012,51.894 296.012,68.59 351.318,68.59 351.318,74.851 248.01,74.851 248.01,91.548 351.318,91.548 
	351.318,108.244 248.01,108.244 248.01,124.94 351.318,124.94 351.318,132.245 368.015,132.245 368.015,51.894 "/>
<rect x="375.324" y="84.244" width="16.696" height="31.306"/>
<g>
</g>
<g>
</g>
<g>
</g>
<g>
</g>
<g>
</g>
<g>
</g>
<g>
</g>
<g>
</g>
<g>
</g>
<g>
</g>
<g>
</g>
<g>
</g>
<g>
</g>
<g>
</g>
<g>
</g>
</svg>
