<?xml version="1.0" encoding="iso-8859-1"?>
<!-- Generator: Adobe Illustrator 19.0.0, SVG Export Plug-In . SVG Version: 6.00 Build 0)  -->
<svg version="1.1" id="Layer_1" xmlns="http://www.w3.org/2000/svg" xmlns:xlink="http://www.w3.org/1999/xlink" x="0px" y="0px"
	 viewBox="0 0 512 512" style="enable-background:new 0 0 512 512;" xml:space="preserve">
<rect x="246.949" y="45.762" style="fill:#CFDCE5;" width="18.092" height="56.28"/>
<g>
	<path style="fill:#BAC6CC;" d="M256,259.223c-45.828,0-83.113-37.284-83.113-83.113S210.172,92.998,256,92.998
		s83.113,37.284,83.113,83.113S301.828,259.223,256,259.223z M256,111.09c-35.853,0-65.021,29.168-65.021,65.021
		s29.168,65.021,65.021,65.021s65.021-29.168,65.021-65.021S291.853,111.09,256,111.09z"/>
	<rect x="199.477" y="323.417" style="fill:#BAC6CC;" width="113.217" height="18.092"/>
</g>
<g>
	<polygon style="fill:#314A5F;" points="350.011,453.465 338.581,512 331.934,452.732 330.914,443.637 351.765,444.483 	"/>
	<polygon style="fill:#314A5F;" points="162.152,453.465 173.581,512 180.229,452.732 181.248,443.637 160.398,444.483 	"/>
</g>
<path style="fill:#CFDCE5;" d="M176.326,368.355l43.917-178.473c3.901-15.849,19.908-25.538,35.759-21.642l0,0L204.51,377.494
	l-9.98,40.563l-16.197,65.821l-21.634-35.756l8.624-35.047"/>
<circle style="fill:#FF6F52;" cx="183.629" cy="393.866" r="26.534"/>
<path style="fill:#CFDCE5;" d="M335.674,368.355l-43.917-178.473c-3.901-15.849-19.908-25.538-35.759-21.642l0,0l51.491,209.254
	l9.981,40.563l16.197,65.821l21.634-35.756l-8.624-35.047"/>
<circle style="fill:#FF6F52;" cx="328.374" cy="393.866" r="26.534"/>
<g>
	<circle style="fill:#BAC6CC;" cx="328.374" cy="393.866" r="9.092"/>
	<circle style="fill:#BAC6CC;" cx="183.629" cy="393.866" r="9.092"/>
</g>
<g>
	<path style="fill:#FF6F52;" d="M256.081,364.118c-4.996,0-9.046-4.05-9.046-9.046v-45.227c0-4.996,4.05-9.046,9.046-9.046
		c4.996,0,9.046,4.05,9.046,9.046v45.227C265.127,360.068,261.076,364.118,256.081,364.118z"/>
	<polygon style="fill:#FF6F52;" points="278.072,0 233.927,0 226.45,77.191 285.55,77.191 	"/>
</g>
<polygon style="fill:#E25749;" points="233.927,0 226.45,77.191 243.939,77.191 245.988,0 "/>
<g>
</g>
<g>
</g>
<g>
</g>
<g>
</g>
<g>
</g>
<g>
</g>
<g>
</g>
<g>
</g>
<g>
</g>
<g>
</g>
<g>
</g>
<g>
</g>
<g>
</g>
<g>
</g>
<g>
</g>
</svg>
