<?xml version="1.0" encoding="iso-8859-1"?>
<!-- Generator: Adobe Illustrator 19.0.0, SVG Export Plug-In . SVG Version: 6.00 Build 0)  -->
<svg version="1.1" id="Layer_1" xmlns="http://www.w3.org/2000/svg" xmlns:xlink="http://www.w3.org/1999/xlink" x="0px" y="0px"
	 viewBox="0 0 512 512" style="enable-background:new 0 0 512 512;" xml:space="preserve">
<path style="fill:#6C4126;" d="M52.966,476.69h406.069V35.31H52.966V476.69z"/>
<g>
	<path style="fill:#7383BF;" d="M88.276,238.345h150.069V70.621H88.276V238.345z"/>
	<path style="fill:#7383BF;" d="M273.655,238.345h150.069V70.621H273.655V238.345z"/>
	<path style="fill:#7383BF;" d="M88.276,441.379h150.069V273.655H88.276V441.379z"/>
	<path style="fill:#7383BF;" d="M273.655,441.379h150.069V273.655H273.655V441.379z"/>
</g>
<g>
	<path style="fill:#DD342E;" d="M123.586,70.621h-35.31v167.724h35.31c29.131,0,52.966-128,52.966-167.724H123.586z"/>
	<path style="fill:#DD342E;" d="M88.276,441.379V273.655h26.483c21.186,12.359,35.31,82.979,35.31,167.724H88.276z"/>
	<path style="fill:#DD342E;" d="M388.414,70.621h35.31v167.724h-35.31c-29.131,0-52.966-128-52.966-167.724H388.414z"/>
	<path style="fill:#DD342E;" d="M423.724,441.379V273.655h-26.483c-21.186,12.359-35.31,82.979-35.31,167.724H423.724z"/>
</g>
<g>
	<path style="fill:#BFA380;" d="M476.69,476.69H35.31v17.655c0,9.71,7.945,17.655,17.655,17.655h406.069
		c9.71,0,17.655-7.945,17.655-17.655V476.69z"/>
	<path style="fill:#BFA380;" d="M459.034,0H52.966C43.255,0,35.31,7.945,35.31,17.655S43.255,35.31,52.966,35.31h406.069
		c9.71,0,17.655-7.945,17.655-17.655S468.745,0,459.034,0"/>
	<path style="fill:#BFA380;" d="M35.31,494.345H17.655c-5.297,0-8.828-3.531-8.828-8.828s3.531-8.828,8.828-8.828H35.31
		c5.297,0,8.828,3.531,8.828,8.828S40.607,494.345,35.31,494.345"/>
	<path style="fill:#BFA380;" d="M494.345,494.345H476.69c-5.297,0-8.828-3.531-8.828-8.828s3.531-8.828,8.828-8.828h17.655
		c5.297,0,8.828,3.531,8.828,8.828S499.641,494.345,494.345,494.345"/>
</g>
<g>
</g>
<g>
</g>
<g>
</g>
<g>
</g>
<g>
</g>
<g>
</g>
<g>
</g>
<g>
</g>
<g>
</g>
<g>
</g>
<g>
</g>
<g>
</g>
<g>
</g>
<g>
</g>
<g>
</g>
</svg>
