<?xml version="1.0" encoding="iso-8859-1"?>
<!-- Generator: Adobe Illustrator 19.0.0, SVG Export Plug-In . SVG Version: 6.00 Build 0)  -->
<svg version="1.1" id="Layer_1" xmlns="http://www.w3.org/2000/svg" xmlns:xlink="http://www.w3.org/1999/xlink" x="0px" y="0px"
	 viewBox="0 0 512 512" style="enable-background:new 0 0 512 512;" xml:space="preserve">
<polygon style="fill:#FF738E;" points="348.951,219.11 167.583,219.11 162.052,221.525 81.107,422.345 144.373,408.845 
	180.598,462.447 255.984,275.386 331.381,462.447 367.533,408.95 367.606,408.845 430.872,422.345 "/>
<polygon style="fill:#FF3C62;" points="219.942,219.11 144.373,408.845 180.598,462.447 255.984,275.386 331.381,462.447 
	367.533,408.95 292.298,219.11 "/>
<g>
	<path style="fill:#85C9FF;" d="M240.024,125.723v86.138L75.397,283.705c-6.635,2.894-13.541,4.326-20.416,4.326
		c-9.738,0-19.382-2.873-28.044-8.536C10.072,268.449,0,248.943,0,227.304V110.28c0-21.639,10.072-41.146,26.936-52.191
		c14.774-9.665,32.432-11.201,48.46-4.211L240.024,125.723z"/>
	<path style="fill:#85C9FF;" d="M512,110.28v117.024c0,21.639-10.072,41.146-26.936,52.191c-8.662,5.663-18.306,8.536-28.044,8.536
		c-6.875,0-13.782-1.431-20.416-4.326l-164.627-71.844v-86.138l164.627-71.844c16.028-6.99,33.686-5.454,48.46,4.211
		C501.928,69.133,512,88.641,512,110.28z"/>
</g>
<g>
	<path style="fill:#00A6FF;" d="M0,168.792h240.024v43.069L75.397,283.705c-6.635,2.894-13.541,4.326-20.416,4.326
		c-9.738,0-19.382-2.873-28.044-8.536C10.072,268.449,0,248.943,0,227.304V168.792z"/>
	<path style="fill:#00A6FF;" d="M512,168.792v58.512c0,21.639-10.072,41.146-26.936,52.191c-8.662,5.663-18.306,8.536-28.044,8.536
		c-6.875,0-13.782-1.431-20.416-4.326l-164.627-71.844v-43.069L512,168.792L512,168.792z"/>
</g>
<polygon style="fill:#DFCCBE;" points="208.674,95.979 208.674,153.119 128.216,153.119 128.216,184.465 208.674,184.465 
	208.674,241.604 303.326,241.604 303.326,95.979 "/>
<polygon style="fill:#BD9B7B;" points="383.784,153.119 303.326,153.119 303.326,95.979 256,95.979 256,241.604 303.326,241.604 
	303.326,184.465 383.784,184.465 "/>
<g>
</g>
<g>
</g>
<g>
</g>
<g>
</g>
<g>
</g>
<g>
</g>
<g>
</g>
<g>
</g>
<g>
</g>
<g>
</g>
<g>
</g>
<g>
</g>
<g>
</g>
<g>
</g>
<g>
</g>
</svg>
